<svg xmlns="http://www.w3.org/2000/svg" xmlns:xlink="http://www.w3.org/1999/xlink" width="50" zoomAndPan="magnify" viewBox="0 0 37.5 449.999984" height="600" preserveAspectRatio="xMidYMid meet" version="1.0"><defs><g/><clipPath id="3e129f7fa5"><path d="M 33 2.960938 L 37 2.960938 L 37 447.039062 L 33 447.039062 Z M 33 2.960938 " clip-rule="nonzero"/></clipPath><clipPath id="47297d8c04"><path d="M 7 2.960938 L 10 2.960938 L 10 447.039062 L 7 447.039062 Z M 7 2.960938 " clip-rule="nonzero"/></clipPath><clipPath id="b851f06dd9"><path d="M 7 444 L 37 444 L 37 447.039062 L 7 447.039062 Z M 7 444 " clip-rule="nonzero"/></clipPath><clipPath id="1de450e4e9"><path d="M 7 2.960938 L 37 2.960938 L 37 6 L 7 6 Z M 7 2.960938 " clip-rule="nonzero"/></clipPath><clipPath id="2748e66064"><path d="M 0 2.960938 L 3 2.960938 L 3 447.039062 L 0 447.039062 Z M 0 2.960938 " clip-rule="nonzero"/></clipPath></defs><g clip-path="url(#3e129f7fa5)"><path stroke-linecap="butt" transform="matrix(0, 0.433486, -0.433486, 0, 36.077893, 2.963852)" fill="none" stroke-linejoin="miter" d="M 0.00228783 2.495582 L 1024.43766 2.495582 " stroke="#ffffff" stroke-width="5" stroke-opacity="1" stroke-miterlimit="4"/></g><g clip-path="url(#47297d8c04)"><path stroke-linecap="butt" transform="matrix(0.000000000756575, 0.433486, -0.433486, 0.000000000756575, 9.761639, 2.963852)" fill="none" stroke-linejoin="miter" d="M 0.00228783 2.495932 L 1024.43766 2.495934 " stroke="#ffffff" stroke-width="5" stroke-opacity="1" stroke-miterlimit="4"/></g><g clip-path="url(#b851f06dd9)"><path stroke-linecap="butt" transform="matrix(-0.433486, 0, 0, -0.433486, 34.995512, 447.039447)" fill="none" stroke-linejoin="miter" d="M -0.00134181 2.497005 L 60.752531 2.497005 " stroke="#ffffff" stroke-width="5" stroke-opacity="1" stroke-miterlimit="4"/></g><g clip-path="url(#1de450e4e9)"><path stroke-linecap="butt" transform="matrix(-0.433486, 0, 0, -0.433486, 35.015515, 5.127947)" fill="none" stroke-linejoin="miter" d="M -0.000253602 2.502915 L 60.753619 2.502915 " stroke="#ffffff" stroke-width="5" stroke-opacity="1" stroke-miterlimit="4"/></g><g clip-path="url(#2748e66064)"><path stroke-linecap="butt" transform="matrix(0, 0.740132, -0.740132, 0, 2.193923, 2.960518)" fill="none" stroke-linejoin="miter" d="M 0.000566364 1.502289 L 599.99948 1.502289 " stroke="#ffffff" stroke-width="3" stroke-opacity="1" stroke-miterlimit="4"/></g><g fill="#77383d" fill-opacity="1"><g transform="translate(12.29405, 118.330145)"><g><path d="M 7.078125 -9.765625 C 6.597656 -9.429688 6.222656 -9.023438 5.953125 -8.546875 C 5.679688 -8.046875 5.546875 -7.5 5.546875 -6.90625 L 5.546875 -3.953125 L 16.625 -3.953125 L 16.625 0.140625 L 1.4375 0.140625 L 1.4375 -7.90625 C 1.4375 -8.582031 1.582031 -9.21875 1.875 -9.8125 C 2.164062 -10.414062 2.570312 -10.925781 3.09375 -11.34375 C 3.625 -11.789062 4.257812 -12.265625 5 -12.765625 C 5.726562 -13.242188 6.476562 -13.753906 7.25 -14.296875 C 8.019531 -14.816406 8.78125 -15.351562 9.53125 -15.90625 C 10.28125 -16.46875 10.953125 -17.046875 11.546875 -17.640625 C 12.140625 -18.234375 12.625 -18.84375 13 -19.46875 C 13.34375 -20.082031 13.515625 -20.71875 13.515625 -21.375 L 13.515625 -22.09375 C 13.515625 -22.726562 13.289062 -23.273438 12.84375 -23.734375 C 12.382812 -24.179688 11.835938 -24.40625 11.203125 -24.40625 L 7.890625 -24.40625 C 7.234375 -24.40625 6.679688 -24.179688 6.234375 -23.734375 C 5.773438 -23.273438 5.546875 -22.726562 5.546875 -22.09375 L 5.546875 -18.65625 L 1.4375 -18.65625 L 1.4375 -22.890625 C 1.4375 -23.660156 1.59375 -24.394531 1.90625 -25.09375 C 2.195312 -25.769531 2.59375 -26.359375 3.09375 -26.859375 C 3.59375 -27.359375 4.1875 -27.757812 4.875 -28.0625 C 5.550781 -28.351562 6.273438 -28.5 7.046875 -28.5 L 12.015625 -28.5 C 12.785156 -28.5 13.515625 -28.351562 14.203125 -28.0625 C 14.898438 -27.757812 15.5 -27.359375 16 -26.859375 C 16.5 -26.359375 16.898438 -25.769531 17.203125 -25.09375 C 17.492188 -24.394531 17.640625 -23.660156 17.640625 -22.890625 L 17.640625 -20.5625 C 17.640625 -19.882812 17.457031 -19.203125 17.09375 -18.515625 C 16.707031 -17.816406 16.21875 -17.128906 15.625 -16.453125 C 15.019531 -15.785156 14.34375 -15.132812 13.59375 -14.5 C 12.820312 -13.863281 12.046875 -13.253906 11.265625 -12.671875 C 10.472656 -12.097656 9.710938 -11.570312 8.984375 -11.09375 C 8.253906 -10.59375 7.617188 -10.148438 7.078125 -9.765625 Z M 7.078125 -9.765625 "/></g></g></g><g fill="#77383d" fill-opacity="1"><g transform="translate(12.29405, 198.958493)"><g><path d="M 12.015625 -28.671875 C 12.785156 -28.671875 13.515625 -28.523438 14.203125 -28.234375 C 14.898438 -27.929688 15.5 -27.53125 16 -27.03125 C 16.5 -26.53125 16.898438 -25.941406 17.203125 -25.265625 C 17.492188 -24.566406 17.640625 -23.835938 17.640625 -23.078125 L 17.640625 -5.609375 C 17.640625 -4.835938 17.492188 -4.113281 17.203125 -3.4375 C 16.898438 -2.738281 16.5 -2.140625 16 -1.640625 C 15.5 -1.140625 14.898438 -0.75 14.203125 -0.46875 C 13.515625 -0.15625 12.785156 0 12.015625 0 L 7.046875 0 C 6.273438 0 5.550781 -0.15625 4.875 -0.46875 C 4.1875 -0.75 3.59375 -1.140625 3.09375 -1.640625 C 2.59375 -2.140625 2.195312 -2.738281 1.90625 -3.4375 C 1.59375 -4.113281 1.4375 -4.835938 1.4375 -5.609375 L 1.4375 -23.078125 C 1.4375 -23.835938 1.59375 -24.566406 1.90625 -25.265625 C 2.195312 -25.941406 2.59375 -26.53125 3.09375 -27.03125 C 3.59375 -27.53125 4.1875 -27.929688 4.875 -28.234375 C 5.550781 -28.523438 6.273438 -28.671875 7.046875 -28.671875 Z M 7.859375 -24.546875 C 7.222656 -24.546875 6.679688 -24.320312 6.234375 -23.875 C 5.773438 -23.4375 5.546875 -22.890625 5.546875 -22.234375 L 5.546875 -9.09375 L 11.953125 -24.421875 C 11.742188 -24.503906 11.492188 -24.546875 11.203125 -24.546875 Z M 11.203125 -4.09375 C 11.835938 -4.09375 12.382812 -4.328125 12.84375 -4.796875 C 13.289062 -5.234375 13.515625 -5.769531 13.515625 -6.40625 L 13.515625 -19.546875 L 7.125 -4.21875 C 7.25 -4.175781 7.367188 -4.144531 7.484375 -4.125 C 7.597656 -4.101562 7.722656 -4.09375 7.859375 -4.09375 Z M 11.203125 -4.09375 "/></g></g></g><g fill="#77383d" fill-opacity="1"><g transform="translate(12.29405, 279.58684)"><g><path d="M 7.078125 -9.765625 C 6.597656 -9.429688 6.222656 -9.023438 5.953125 -8.546875 C 5.679688 -8.046875 5.546875 -7.5 5.546875 -6.90625 L 5.546875 -3.953125 L 16.625 -3.953125 L 16.625 0.140625 L 1.4375 0.140625 L 1.4375 -7.90625 C 1.4375 -8.582031 1.582031 -9.21875 1.875 -9.8125 C 2.164062 -10.414062 2.570312 -10.925781 3.09375 -11.34375 C 3.625 -11.789062 4.257812 -12.265625 5 -12.765625 C 5.726562 -13.242188 6.476562 -13.753906 7.25 -14.296875 C 8.019531 -14.816406 8.78125 -15.351562 9.53125 -15.90625 C 10.28125 -16.46875 10.953125 -17.046875 11.546875 -17.640625 C 12.140625 -18.234375 12.625 -18.84375 13 -19.46875 C 13.34375 -20.082031 13.515625 -20.71875 13.515625 -21.375 L 13.515625 -22.09375 C 13.515625 -22.726562 13.289062 -23.273438 12.84375 -23.734375 C 12.382812 -24.179688 11.835938 -24.40625 11.203125 -24.40625 L 7.890625 -24.40625 C 7.234375 -24.40625 6.679688 -24.179688 6.234375 -23.734375 C 5.773438 -23.273438 5.546875 -22.726562 5.546875 -22.09375 L 5.546875 -18.65625 L 1.4375 -18.65625 L 1.4375 -22.890625 C 1.4375 -23.660156 1.59375 -24.394531 1.90625 -25.09375 C 2.195312 -25.769531 2.59375 -26.359375 3.09375 -26.859375 C 3.59375 -27.359375 4.1875 -27.757812 4.875 -28.0625 C 5.550781 -28.351562 6.273438 -28.5 7.046875 -28.5 L 12.015625 -28.5 C 12.785156 -28.5 13.515625 -28.351562 14.203125 -28.0625 C 14.898438 -27.757812 15.5 -27.359375 16 -26.859375 C 16.5 -26.359375 16.898438 -25.769531 17.203125 -25.09375 C 17.492188 -24.394531 17.640625 -23.660156 17.640625 -22.890625 L 17.640625 -20.5625 C 17.640625 -19.882812 17.457031 -19.203125 17.09375 -18.515625 C 16.707031 -17.816406 16.21875 -17.128906 15.625 -16.453125 C 15.019531 -15.785156 14.34375 -15.132812 13.59375 -14.5 C 12.820312 -13.863281 12.046875 -13.253906 11.265625 -12.671875 C 10.472656 -12.097656 9.710938 -11.570312 8.984375 -11.09375 C 8.253906 -10.59375 7.617188 -10.148438 7.078125 -9.765625 Z M 7.078125 -9.765625 "/></g></g></g><g fill="#77383d" fill-opacity="1"><g transform="translate(12.321143, 360.215188)"><g><path d="M 17.578125 -28.703125 L 17.578125 0 L 13.484375 0 L 13.484375 -4.53125 L 1.4375 -4.53125 L 1.4375 -7.90625 L 13.484375 -26.109375 L 13.484375 -28.703125 Z M 13.484375 -7.90625 L 13.484375 -18.65625 L 6.375 -7.90625 Z M 13.484375 -7.90625 "/></g></g></g></svg>