<svg xmlns="http://www.w3.org/2000/svg" xmlns:xlink="http://www.w3.org/1999/xlink" width="600" zoomAndPan="magnify" viewBox="0 0 450 30.000001" height="40" preserveAspectRatio="xMidYMid meet" version="1.0"><defs><clipPath id="91acd6b840"><path d="M 7.257812 1 L 442.742188 1 L 442.742188 4 L 7.257812 4 Z M 7.257812 1 " clip-rule="nonzero"/></clipPath><clipPath id="20c63774e2"><path d="M 7.257812 25 L 442.742188 25 L 442.742188 28 L 7.257812 28 Z M 7.257812 25 " clip-rule="nonzero"/></clipPath><clipPath id="991a1be3f8"><path d="M 440 1 L 442.742188 1 L 442.742188 28 L 440 28 Z M 440 1 " clip-rule="nonzero"/></clipPath><clipPath id="56146f2a99"><path d="M 7.257812 1 L 10 1 L 10 28 L 7.257812 28 Z M 7.257812 1 " clip-rule="nonzero"/></clipPath></defs><g clip-path="url(#91acd6b840)"><path stroke-linecap="butt" transform="matrix(0.472672, 0, 0, 0.472672, 7.314046, 1.450041)" fill="none" stroke-linejoin="miter" d="M -0.00327009 1.998192 L 921.089313 1.998192 " stroke="#ffffff" stroke-width="4" stroke-opacity="1" stroke-miterlimit="4"/></g><g clip-path="url(#20c63774e2)"><path stroke-linecap="butt" transform="matrix(0.472672, 0, 0, 0.472672, 7.314046, 25.691534)" fill="none" stroke-linejoin="miter" d="M -0.00327009 1.999662 L 921.089313 1.999662 " stroke="#ffffff" stroke-width="4" stroke-opacity="1" stroke-miterlimit="4"/></g><g clip-path="url(#991a1be3f8)"><path stroke-linecap="butt" transform="matrix(0, 0.472672, -0.472672, 0, 442.738952, 2.398343)" fill="none" stroke-linejoin="miter" d="M 0.000200311 2.00135 L 51.32903 2.00135 " stroke="#ffffff" stroke-width="4" stroke-opacity="1" stroke-miterlimit="4"/></g><g clip-path="url(#56146f2a99)"><path stroke-linecap="butt" transform="matrix(0, 0.472672, -0.472672, 0, 9.14579, 2.379918)" fill="none" stroke-linejoin="miter" d="M -0.00214028 2.002594 L 51.326689 2.002594 " stroke="#ffffff" stroke-width="4" stroke-opacity="1" stroke-miterlimit="4"/></g></svg>