<svg xmlns="http://www.w3.org/2000/svg" xmlns:xlink="http://www.w3.org/1999/xlink" width="300" zoomAndPan="magnify" viewBox="0 0 224.87999 78.749999" height="105" preserveAspectRatio="xMidYMid meet" version="1.0"><defs><g/><clipPath id="2fde1d646d"><path d="M 0.296875 0 L 224.464844 0 L 224.464844 3 L 0.296875 3 Z M 0.296875 0 " clip-rule="nonzero"/></clipPath><clipPath id="e10e6ae16e"><path d="M 0.296875 76 L 224.464844 76 L 224.464844 78.5 L 0.296875 78.5 Z M 0.296875 76 " clip-rule="nonzero"/></clipPath><clipPath id="02ce3fc089"><path d="M 221 0 L 224.464844 0 L 224.464844 78.5 L 221 78.5 Z M 221 0 " clip-rule="nonzero"/></clipPath><clipPath id="49deb68ae8"><path d="M 0.296875 0 L 14 0 L 14 78.5 L 0.296875 78.5 Z M 0.296875 0 " clip-rule="nonzero"/></clipPath></defs><g clip-path="url(#2fde1d646d)"><path stroke-linecap="butt" transform="matrix(0.747627, 0, 0, 0.747627, 0.825229, -0.138382)" fill="none" stroke-linejoin="miter" d="M -0.00135142 1.501762 L 297.163015 1.501762 " stroke="#ffffff" stroke-width="3" stroke-opacity="1" stroke-miterlimit="4"/></g><g clip-path="url(#e10e6ae16e)"><path stroke-linecap="butt" transform="matrix(0.747627, 0, 0, 0.747627, 0.825229, 76.396294)" fill="none" stroke-linejoin="miter" d="M -0.00135142 1.502405 L 297.163015 1.502405 " stroke="#ffffff" stroke-width="3" stroke-opacity="1" stroke-miterlimit="4"/></g><g clip-path="url(#02ce3fc089)"><path stroke-linecap="butt" transform="matrix(0, 0.747627, -0.747627, 0, 224.115334, 0.00000199367)" fill="none" stroke-linejoin="miter" d="M -0.00000266667 1.502282 L 104.998944 1.502282 " stroke="#ffffff" stroke-width="3" stroke-opacity="1" stroke-miterlimit="4"/></g><g clip-path="url(#49deb68ae8)"><path stroke-linecap="butt" transform="matrix(-0.00452829, 0.747613, -0.747613, -0.00452829, 2.421404, 0.00751441)" fill="none" stroke-linejoin="miter" d="M -0.000972113 1.498941 L 104.999916 1.500396 " stroke="#ffffff" stroke-width="3" stroke-opacity="1" stroke-miterlimit="4"/></g><g fill="#a10201" fill-opacity="1"><g transform="translate(29.336704, 58.63856)"><g><path d="M 51.75 -27.359375 L 51.75 -31.484375 L 28.953125 -31.484375 C 29.5625 -36.71875 29.609375 -41.71875 29.671875 -46.015625 L 25.328125 -46.015625 C 25.265625 -41.828125 25.328125 -36.765625 24.71875 -31.484375 L 3.515625 -31.484375 L 3.515625 -27.359375 L 24.0625 -27.359375 C 22.078125 -16.453125 16.734375 -5.28125 2.25 0.828125 C 3.40625 1.65625 4.671875 3.140625 5.28125 4.1875 C 11.71875 1.328125 16.40625 -2.484375 19.875 -6.875 C 23.5625 -3.6875 27.90625 0.71875 29.953125 3.578125 L 33.40625 0.875 C 31.15625 -2.09375 26.484375 -6.546875 22.671875 -9.640625 L 21.078125 -8.53125 C 24.65625 -13.546875 26.703125 -19.09375 27.90625 -24.71875 C 32.09375 -11.390625 39.140625 -0.984375 50.09375 4.296875 C 50.8125 3.140625 52.125 1.4375 53.171875 0.546875 C 42.21875 -4.125 35.015625 -14.59375 31.265625 -27.359375 Z M 51.75 -27.359375 "/></g></g></g><g fill="#a10201" fill-opacity="1"><g transform="translate(84.380213, 58.63856)"><g><path d="M 8.03125 -37.21875 L 46.84375 -37.21875 L 46.84375 -31.09375 L 50.921875 -31.09375 L 50.921875 -40.953125 L 30.171875 -40.953125 C 29.5 -42.609375 28.40625 -44.8125 27.296875 -46.40625 L 23.125 -45.140625 C 23.890625 -43.921875 24.65625 -42.328125 25.265625 -40.953125 L 4.078125 -40.953125 L 4.078125 -31.09375 L 8.03125 -31.09375 Z M 8.75 -27.515625 L 46.5625 -27.515625 L 46.5625 -31.15625 L 30.546875 -31.15625 C 29.953125 -32.640625 28.734375 -34.5625 27.640625 -36.0625 L 24.328125 -34.734375 C 25.09375 -33.6875 25.875 -32.375 26.375 -31.15625 L 8.75 -31.15625 Z M 51.859375 -15.40625 L 51.859375 -19.21875 L 37.09375 -19.21875 C 38.3125 -21.296875 39.6875 -23.953125 40.90625 -26.3125 L 36.875 -27.359375 C 36.109375 -24.984375 34.625 -21.6875 33.296875 -19.21875 L 20.09375 -19.21875 L 21.6875 -19.703125 C 21.1875 -21.6875 19.8125 -24.828125 18.390625 -27.1875 L 14.8125 -26.25 C 15.96875 -24.0625 17.125 -21.25 17.71875 -19.21875 L 3.25 -19.21875 L 3.25 -15.40625 L 25.328125 -15.40625 L 25.328125 -9.25 L 7.15625 -9.25 L 7.15625 -5.5 L 25.328125 -5.5 L 25.328125 4.1875 L 29.453125 4.1875 L 29.453125 -5.5 L 47.890625 -5.5 L 47.890625 -9.25 L 29.453125 -9.25 L 29.453125 -15.40625 Z M 51.859375 -15.40625 "/></g></g></g><g fill="#a10201" fill-opacity="1"><g transform="translate(139.423723, 58.63856)"><g><path d="M 18.5 -39.6875 C 16.125 -41.28125 11.453125 -43.765625 8.09375 -45.359375 L 5.78125 -42.4375 C 9.25 -40.625 13.8125 -37.984375 16.125 -36.28125 Z M 14.8125 -24.828125 C 12.5 -26.421875 7.984375 -28.90625 4.671875 -30.390625 L 2.484375 -27.40625 C 5.78125 -25.703125 10.34375 -23.0625 12.546875 -21.515625 Z M 7.265625 3.46875 C 10.453125 -1.59375 14.25 -8.359375 17.171875 -14.140625 L 14.203125 -16.84375 C 11.015625 -10.625 6.765625 -3.40625 3.796875 0.71875 Z M 44.03125 -13.921875 L 44.03125 -1.921875 L 24.328125 -1.921875 L 24.328125 -13.921875 Z M 20.375 4.296875 L 24.328125 4.296875 L 24.328125 1.875 L 44.03125 1.875 L 44.03125 4.125 L 48.109375 4.125 L 48.109375 -17.71875 L 20.375 -17.71875 Z M 36.984375 -37.15625 C 39.296875 -34.515625 41.828125 -31.328125 43.921875 -28.234375 L 23.453125 -27.078125 C 27.40625 -32.03125 31.375 -38.421875 34.734375 -44.859375 L 30.5 -46.078125 C 27.359375 -38.96875 22.34375 -31.59375 20.75 -29.671875 C 19.265625 -27.640625 18.0625 -26.3125 16.953125 -26.09375 C 17.453125 -24.984375 18.109375 -23.015625 18.328125 -22.1875 C 20.03125 -22.84375 22.625 -23.015625 46.34375 -24.609375 C 47.125 -23.390625 47.78125 -22.1875 48.28125 -21.1875 L 51.90625 -23.28125 C 49.703125 -27.578125 44.921875 -34.125 40.40625 -38.921875 Z M 36.984375 -37.15625 "/></g></g></g></svg>