<svg xmlns="http://www.w3.org/2000/svg" xmlns:xlink="http://www.w3.org/1999/xlink" width="300" zoomAndPan="magnify" viewBox="0 0 224.87999 30.000001" height="40" preserveAspectRatio="xMidYMid meet" version="1.0"><defs><clipPath id="f65e71b883"><path d="M 3.570312 1 L 221.195312 1 L 221.195312 4 L 3.570312 4 Z M 3.570312 1 " clip-rule="nonzero"/></clipPath><clipPath id="8b3f364718"><path d="M 3.570312 25 L 221.195312 25 L 221.195312 28 L 3.570312 28 Z M 3.570312 25 " clip-rule="nonzero"/></clipPath><clipPath id="c4156e0e29"><path d="M 219 1 L 221.195312 1 L 221.195312 28 L 219 28 Z M 219 1 " clip-rule="nonzero"/></clipPath><clipPath id="c78b6f7ef2"><path d="M 3.570312 0 L 6 0 L 6 28 L 3.570312 28 Z M 3.570312 0 " clip-rule="nonzero"/></clipPath></defs><g clip-path="url(#f65e71b883)"><path stroke-linecap="butt" transform="matrix(0.725806, 0.000000000000000001, -0.000000000000000001, 0.725806, 3.569024, 1.123531)" fill="none" stroke-linejoin="miter" d="M 0.00177578 1.498205 L 300.002126 1.498205 " stroke="#ffffff" stroke-width="3" stroke-opacity="1" stroke-miterlimit="4"/></g><g clip-path="url(#8b3f364718)"><path stroke-linecap="butt" transform="matrix(0.725806, 0, 0, 0.725806, 3.642557, 25.731311)" fill="none" stroke-linejoin="miter" d="M -0.00266142 1.500402 L 299.900813 1.500402 " stroke="#ffffff" stroke-width="3" stroke-opacity="1" stroke-miterlimit="4"/></g><g clip-path="url(#c4156e0e29)"><path stroke-linecap="butt" transform="matrix(0, 0.725806, -0.725806, 0, 221.435903, 2.217114)" fill="none" stroke-linejoin="miter" d="M 0.00225432 1.499362 L 33.903123 1.499362 " stroke="#ffffff" stroke-width="3" stroke-opacity="1" stroke-miterlimit="4"/></g><g clip-path="url(#c78b6f7ef2)"><path stroke-linecap="butt" transform="matrix(0, 0.725806, -0.725806, 0, 5.74157, 1.526127)" fill="none" stroke-linejoin="miter" d="M 0.00167651 1.500712 L 33.902545 1.500712 " stroke="#ffffff" stroke-width="3" stroke-opacity="1" stroke-miterlimit="4"/></g></svg>