<svg xmlns="http://www.w3.org/2000/svg" xmlns:xlink="http://www.w3.org/1999/xlink" width="158" zoomAndPan="magnify" viewBox="0 0 118.5 118.499997" height="158" preserveAspectRatio="xMidYMid meet" version="1.0"><defs><clipPath id="ca11de385a"><path d="M 0 0 L 118.003906 0 L 118.003906 118.003906 L 0 118.003906 Z M 0 0 " clip-rule="nonzero"/></clipPath><clipPath id="2d7bff95f2"><path d="M 59 0 C 26.414062 0 0 26.414062 0 59 C 0 91.585938 26.414062 118.003906 59 118.003906 C 91.585938 118.003906 118.003906 91.585938 118.003906 59 C 118.003906 26.414062 91.585938 0 59 0 Z M 59 0 " clip-rule="nonzero"/></clipPath><clipPath id="7ed482d3bf"><path d="M 25.464844 14.875 L 92.679688 14.875 L 92.679688 103 L 25.464844 103 Z M 25.464844 14.875 " clip-rule="nonzero"/></clipPath></defs><g clip-path="url(#ca11de385a)"><g clip-path="url(#2d7bff95f2)"><path fill="#000000" d="M 0 0 L 118.003906 0 L 118.003906 118.003906 L 0 118.003906 Z M 0 0 " fill-opacity="1" fill-rule="nonzero"/></g></g><g clip-path="url(#7ed482d3bf)"><path fill="#590202" d="M 92.011719 36.570312 L 70.832031 15.390625 C 70.503906 15.058594 70.054688 14.875 69.585938 14.875 L 27.230469 14.875 C 26.253906 14.875 25.464844 15.664062 25.464844 16.640625 L 25.464844 101.351562 C 25.464844 102.328125 26.253906 103.117188 27.230469 103.117188 L 90.761719 103.117188 C 91.738281 103.117188 92.527344 102.328125 92.527344 101.351562 L 92.527344 37.816406 C 92.527344 37.347656 92.34375 36.898438 92.011719 36.570312 Z M 71.351562 20.898438 L 86.503906 36.050781 L 71.351562 36.050781 Z M 28.992188 99.585938 L 28.992188 18.402344 L 67.820312 18.402344 L 67.820312 37.816406 C 67.820312 38.792969 68.609375 39.582031 69.585938 39.582031 L 89 39.582031 L 89 99.585938 Z M 28.992188 99.585938 " fill-opacity="1" fill-rule="nonzero"/></g><path fill="#590202" d="M 41.347656 39.582031 L 55.464844 39.582031 C 56.441406 39.582031 57.230469 38.792969 57.230469 37.816406 C 57.230469 36.84375 56.441406 36.050781 55.464844 36.050781 L 41.347656 36.050781 C 40.375 36.050781 39.582031 36.84375 39.582031 37.816406 C 39.582031 38.792969 40.375 39.582031 41.347656 39.582031 Z M 41.347656 39.582031 " fill-opacity="1" fill-rule="nonzero"/><path fill="#590202" d="M 76.644531 50.171875 L 41.347656 50.171875 C 40.375 50.171875 39.582031 50.960938 39.582031 51.9375 C 39.582031 52.910156 40.375 53.699219 41.347656 53.699219 L 76.644531 53.699219 C 77.621094 53.699219 78.410156 52.910156 78.410156 51.9375 C 78.410156 50.960938 77.621094 50.171875 76.644531 50.171875 Z M 76.644531 50.171875 " fill-opacity="1" fill-rule="nonzero"/><path fill="#590202" d="M 76.644531 64.289062 L 41.347656 64.289062 C 40.375 64.289062 39.582031 65.078125 39.582031 66.054688 C 39.582031 67.03125 40.375 67.820312 41.347656 67.820312 L 76.644531 67.820312 C 77.621094 67.820312 78.410156 67.03125 78.410156 66.054688 C 78.410156 65.078125 77.621094 64.289062 76.644531 64.289062 Z M 76.644531 64.289062 " fill-opacity="1" fill-rule="nonzero"/><path fill="#590202" d="M 76.644531 78.410156 L 41.347656 78.410156 C 40.375 78.410156 39.582031 79.199219 39.582031 80.171875 C 39.582031 81.148438 40.375 81.9375 41.347656 81.9375 L 76.644531 81.9375 C 77.621094 81.9375 78.410156 81.148438 78.410156 80.171875 C 78.410156 79.199219 77.621094 78.410156 76.644531 78.410156 Z M 76.644531 78.410156 " fill-opacity="1" fill-rule="nonzero"/></svg>