<svg xmlns="http://www.w3.org/2000/svg" xmlns:xlink="http://www.w3.org/1999/xlink" width="158" zoomAndPan="magnify" viewBox="0 0 118.5 183.749994" height="245" preserveAspectRatio="xMidYMid meet" version="1.0"><defs><clipPath id="672e321595"><path d="M 0 0.300781 L 118.003906 0.300781 L 118.003906 182.492188 L 0 182.492188 Z M 0 0.300781 " clip-rule="nonzero"/></clipPath><clipPath id="bc8875ef59"><path d="M 46.5 61.054688 L 81.601562 61.054688 L 81.601562 115.5625 L 46.5 115.5625 Z M 46.5 61.054688 " clip-rule="nonzero"/></clipPath></defs><g clip-path="url(#672e321595)"><path fill="#590202" d="M 114.730469 84.613281 L 14.777344 2.414062 C 7.246094 -3.773438 -3.371094 4.75 1.039062 13.4375 L 38.652344 87.480469 C 39.953125 90.039062 39.953125 93.0625 38.652344 95.628906 L 1.039062 169.691406 C -3.375 178.375 7.242188 186.894531 14.769531 180.707031 L 114.730469 98.507812 C 119.105469 94.910156 119.105469 88.214844 114.730469 84.613281 " fill-opacity="1" fill-rule="nonzero"/></g><g clip-path="url(#bc8875ef59)"><path fill="#590202" d="M 80.96875 86.386719 L 50.941406 61.691406 C 48.679688 59.832031 45.488281 62.390625 46.8125 65 L 58.113281 87.246094 C 58.503906 88.015625 58.503906 88.925781 58.113281 89.695312 L 46.8125 111.945312 C 45.488281 114.554688 48.675781 117.113281 50.9375 115.253906 L 80.96875 90.558594 C 82.285156 89.476562 82.285156 87.46875 80.96875 86.386719 " fill-opacity="1" fill-rule="nonzero"/></g></svg>